<svg width="1333" height="203" viewBox="0 0 1333 203" fill="none" xmlns="http://www.w3.org/2000/svg">
<path d="M57.1543 199.496V43.0018H0V8.98139H151.323V43.0018H94.4406V199.496H57.1543ZM173.636 199.496V8.98139H209.561V199.496H173.636ZM263.994 199.496V129.822H299.92V199.496H263.994ZM263.994 129.822C263.994 120.569 262.905 113.402 260.728 108.321C258.551 103.241 255.557 99.6117 251.747 97.4344C247.936 95.0756 243.491 93.8963 238.411 93.8963C229.157 93.7148 221.99 96.5272 216.91 102.334C212.011 108.14 209.561 116.758 209.561 128.189H197.586C197.586 113.674 199.673 101.427 203.846 91.4468C208.201 81.2861 214.188 73.5748 221.809 68.3129C229.611 62.8697 238.683 60.148 249.025 60.148C259.912 60.148 269.074 62.3253 276.514 66.68C284.134 71.0346 289.94 77.8386 293.932 87.0922C297.924 96.1643 299.92 107.959 299.92 122.474V129.822H263.994ZM356.615 127.917C356.615 113.22 359.427 101.064 365.052 91.4468C370.858 81.8304 378.206 74.6634 387.097 69.9459C396.169 65.2284 405.604 62.8697 415.402 62.8697V97.7066C407.055 97.7066 399.163 98.7045 391.724 100.701C384.466 102.697 378.569 105.963 374.033 110.499C369.497 115.035 367.229 120.841 367.229 127.917H356.615ZM331.303 199.496V63.414H367.229V199.496H331.303ZM439.327 199.496V63.414H475.252V199.496H439.327ZM457.289 41.3688C451.846 41.3688 447.038 39.3729 442.865 35.3812C438.692 31.208 436.605 26.3091 436.605 20.6844C436.605 15.0597 438.692 10.2515 442.865 6.25976C447.038 2.08659 451.846 0 457.289 0C462.914 0 467.722 2.08659 471.714 6.25976C475.887 10.2515 477.974 15.0597 477.974 20.6844C477.974 26.3091 475.887 31.208 471.714 35.3812C467.722 39.3729 462.914 41.3688 457.289 41.3688ZM556.28 199.496L607.991 63.414H645.005L589.212 199.496H556.28ZM553.286 199.496L497.493 63.414H534.507L586.218 199.496H553.286ZM722.31 202.762C708.884 202.762 696.999 199.768 686.657 193.781C676.315 187.612 668.15 179.175 662.162 168.469C656.356 157.764 653.453 145.426 653.453 131.455C653.453 117.484 656.447 105.146 662.435 94.4406C668.604 83.7355 676.95 75.3892 687.474 69.4016C698.179 63.2326 710.426 60.148 724.216 60.148C736.191 60.148 747.168 63.3233 757.147 69.6738C767.308 75.8428 775.382 85.0056 781.37 97.1622C787.539 109.138 790.623 123.744 790.623 140.981H687.474L690.74 137.715C690.74 144.428 692.373 150.325 695.638 155.406C699.086 160.305 703.441 164.115 708.702 166.837C714.146 169.377 719.952 170.647 726.121 170.647C733.56 170.647 739.638 169.105 744.356 166.02C749.073 162.754 752.702 158.581 755.242 153.501L787.357 166.02C783.547 173.641 778.558 180.263 772.389 185.888C766.401 191.331 759.234 195.504 750.888 198.407C742.541 201.311 733.016 202.762 722.31 202.762ZM692.645 117.575L689.379 114.309H754.97L751.976 117.575C751.976 111.043 750.434 105.872 747.349 102.062C744.265 98.0694 740.455 95.1664 735.919 93.352C731.564 91.5375 727.3 90.6303 723.127 90.6303C718.954 90.6303 714.508 91.5375 709.791 93.352C705.073 95.1664 700.991 98.0694 697.544 102.062C694.278 105.872 692.645 111.043 692.645 117.575ZM819.394 199.496V8.98139H858.313L951.393 136.899V8.98139H988.407V199.496H951.393L856.68 69.1294V199.496H819.394ZM1032.62 199.496V8.98139H1103.38C1116.81 8.98139 1128.69 11.703 1139.03 17.1463C1149.37 22.4081 1157.45 29.8472 1163.26 39.4636C1169.06 48.8986 1171.96 59.8759 1171.96 72.3954C1171.96 84.7334 1169.15 95.7107 1163.53 105.328C1157.9 114.944 1150.19 122.565 1140.39 128.189C1130.6 133.633 1119.26 136.354 1106.37 136.354H1069.9V199.496H1032.62ZM1069.9 102.062H1105.56C1113.9 102.062 1120.71 99.3395 1125.97 93.8963C1131.41 88.2716 1134.13 81.1046 1134.13 72.3954C1134.13 63.6862 1131.14 56.6099 1125.15 51.1667C1119.35 45.7234 1111.82 43.0018 1102.56 43.0018H1069.9V102.062ZM1263.29 202.762C1253.67 202.762 1244.69 201.583 1236.34 199.224C1228 196.865 1220.56 193.599 1214.02 189.426C1207.49 185.071 1202.05 180.263 1197.69 175.001C1193.52 169.74 1190.8 164.206 1189.53 158.399L1226 147.513C1228.36 153.682 1232.53 159.035 1238.52 163.571C1244.51 167.925 1252.04 170.193 1261.11 170.375C1270.72 170.556 1278.53 168.469 1284.51 164.115C1290.68 159.76 1293.77 154.136 1293.77 147.241C1293.77 141.253 1291.32 136.264 1286.42 132.272C1281.7 128.099 1275.17 124.923 1266.82 122.746L1242.06 116.214C1232.8 113.855 1224.64 110.317 1217.56 105.6C1210.49 100.701 1204.95 94.7128 1200.96 87.6365C1196.97 80.5603 1194.97 72.3047 1194.97 62.8697C1194.97 44.9069 1200.87 30.9359 1212.66 20.9565C1224.64 10.7958 1241.51 5.71544 1263.29 5.71544C1275.44 5.71544 1286.06 7.52986 1295.13 11.1587C1304.38 14.6061 1312.09 19.5957 1318.26 26.1276C1324.43 32.6596 1329.15 40.3708 1332.42 49.2615L1296.22 60.4202C1294.04 54.2512 1290.05 48.9894 1284.24 44.6347C1278.44 40.2801 1271.09 38.1028 1262.2 38.1028C1253.13 38.1028 1245.96 40.1894 1240.7 44.3626C1235.62 48.5357 1233.08 54.4326 1233.08 62.0532C1233.08 68.0408 1235.07 72.7583 1239.06 76.2057C1243.24 79.6531 1248.86 82.284 1255.94 84.0984L1280.98 90.3582C1297.31 94.3499 1310.01 101.517 1319.08 111.86C1328.15 122.202 1332.69 133.723 1332.69 146.424C1332.69 157.674 1329.97 167.562 1324.52 176.09C1319.08 184.436 1311.19 190.968 1300.84 195.686C1290.5 200.403 1277.98 202.762 1263.29 202.762Z" fill="url(#paint0_linear_2_126)"/>
<defs>
<linearGradient id="paint0_linear_2_126" x1="-3.81028" y1="103.996" x2="1344.19" y2="103.996" gradientUnits="userSpaceOnUse">
<stop stop-color="white"/>
<stop offset="1" stop-color="white" stop-opacity="0.4"/>
</linearGradient>
</defs>
</svg>
