<svg width="150" height="50" viewBox="0 0 150 50" fill="none" xmlns="http://www.w3.org/2000/svg">
<g clip-path="url(#clip0_2_410)">
<path d="M76.3622 3.07018V6.19229H71.0786V22.8999H67.0988V6.19229H61.8152V3.07018H76.3622Z" fill="#1C133D"/>
<path d="M91.3112 7.71152C92.243 8.24805 92.9968 9.0519 93.4728 10.0163C93.991 11.0875 94.2612 12.2663 94.2612 13.4577C94.2612 13.5269 94.2593 13.5971 94.2583 13.6644V22.9019H90.2795V14.2038C90.2853 14.1153 90.2882 14.025 90.2882 13.9355C90.2882 12.9798 89.9507 12.0548 89.3382 11.3221C88.7132 10.6769 87.8536 10.3115 86.9545 10.3115C86.8987 10.3115 86.842 10.3134 86.7872 10.3154C86.7305 10.3134 86.6728 10.3115 86.6151 10.3115C85.7045 10.3115 84.8305 10.6759 84.1901 11.3221C83.569 12.0528 83.2276 12.9817 83.2276 13.9413C83.2276 14.0288 83.2305 14.1173 83.2363 14.2048V22.9028H79.2642V1.87788H83.2372V9.12209C83.7709 8.42017 84.4795 7.86825 85.2882 7.51921C86.1516 7.13364 87.0872 6.9346 88.0334 6.9346C88.0632 6.9346 88.0959 6.93556 88.1247 6.93556C88.1641 6.93556 88.2045 6.9346 88.2449 6.9346C89.3161 6.9346 90.3709 7.20287 91.3112 7.71441V7.71152Z" fill="#1C133D"/>
<path d="M104.021 7.72402C104.842 7.20672 105.794 6.93172 106.765 6.93172C106.793 6.93172 106.823 6.93268 106.851 6.93268V11.1067H105.806C105.709 11.1 105.611 11.0961 105.513 11.0961C104.591 11.0961 103.695 11.4125 102.976 11.9894C102.327 12.574 102.029 13.599 102.029 15.0596V22.9009H98.017V7.14037H101.996V9.92498C102.47 9.02979 103.168 8.26921 104.021 7.72402Z" fill="#1C133D"/>
<path d="M109.792 4.61441C109.345 4.19903 109.09 3.61634 109.09 3.00577C109.09 2.98846 109.09 2.97019 109.091 2.95288C109.091 2.93942 109.091 2.925 109.091 2.91154C109.091 2.3 109.346 1.71539 109.793 1.29808C110.27 0.864426 110.894 0.623085 111.539 0.623085C112.184 0.623085 112.807 0.864426 113.285 1.29808C113.728 1.71827 113.98 2.30288 113.98 2.91346C113.98 2.92884 113.98 2.94423 113.979 2.95961C113.979 2.97596 113.98 2.99327 113.98 3.01057C113.98 3.62019 113.729 4.20288 113.285 4.62115C112.807 5.05576 112.184 5.29614 111.539 5.29614C110.894 5.29614 110.27 5.05576 109.793 4.62115L109.792 4.61441ZM113.499 7.14037V22.9009H109.52V7.14037H113.499Z" fill="#1C133D"/>
<path d="M123.981 19.2326L127.96 7.14037H132.219L126.422 22.8807H121.534L115.744 7.14037H120.003L123.981 19.2326Z" fill="#1C133D"/>
<path d="M148.952 16.1365H137.444C137.465 17.1615 137.884 18.1403 138.612 18.8634C139.29 19.5019 140.187 19.8576 141.118 19.8576C141.148 19.8576 141.179 19.8567 141.208 19.8567C141.274 19.8605 141.341 19.8624 141.406 19.8624C142.68 19.8624 143.838 19.1163 144.363 17.9548H148.647C148.212 19.4509 147.3 20.7644 146.05 21.6942C144.745 22.6442 143.169 23.1586 141.554 23.1586C141.472 23.1586 141.388 23.1567 141.305 23.1547C141.266 23.1547 141.224 23.1547 141.183 23.1547C139.802 23.1547 138.441 22.8086 137.228 22.148C136.039 21.4846 135.061 20.4913 134.417 19.2913C133.755 18.0307 133.409 16.6249 133.409 15.2C133.409 15.1432 133.41 15.0826 133.411 15.0269C133.409 14.9634 133.408 14.8961 133.408 14.8317C133.408 13.4077 133.751 12.0009 134.403 10.7355C135.035 9.5394 136.004 8.5519 137.188 7.89902C138.453 7.24325 139.864 6.89902 141.29 6.89902C142.693 6.89902 144.077 7.23171 145.327 7.86632C146.489 8.49228 147.447 9.44324 148.08 10.6C148.724 11.7913 149.062 13.1259 149.062 14.4807C149.062 14.5384 149.061 14.6 149.06 14.6567C149.06 14.6855 149.06 14.7153 149.06 14.7442C149.06 15.2096 149.023 15.6769 148.95 16.1355L148.952 16.1365ZM145.057 12.2423C145.058 12.2105 145.059 12.1778 145.059 12.1461C145.059 11.1961 144.66 10.2884 143.961 9.64612C143.259 9.03459 142.358 8.69709 141.426 8.69709C141.386 8.69709 141.345 8.69805 141.305 8.69901C141.275 8.69901 141.242 8.69805 141.21 8.69805C140.308 8.69805 139.438 9.03747 138.774 9.64709C138.069 10.3375 137.635 11.2596 137.553 12.2432L145.057 12.2423Z" fill="#1C133D"/>
<path d="M84.3853 48.1575H80.4065L71.3959 34.5259V48.1575H67.4238V28.3009H71.3959L80.4065 41.9326V28.3009H84.3853V48.1575Z" fill="#E8368D"/>
<path d="M101.977 37.447C101.435 38.4143 100.612 39.198 99.6199 39.6932C98.4516 40.2557 97.1699 40.5489 95.8728 40.5489C95.7728 40.5489 95.6689 40.547 95.5689 40.5431H92.2459V48.1575H88.2795V28.3268H95.5824C95.6564 28.3259 95.7334 28.324 95.8074 28.324C97.0728 28.324 98.3237 28.5951 99.4766 29.1182C100.489 29.5864 101.338 30.3489 101.911 31.3057C102.443 32.2605 102.723 33.3364 102.723 34.4297C102.723 35.4816 102.463 36.5182 101.97 37.446L101.977 37.447ZM95.7016 31.4701C95.6084 31.4701 95.5141 31.4739 95.4209 31.4816H92.2661V37.421H95.4209C95.4997 37.4259 95.5786 37.4287 95.6584 37.4287C99.5939 37.4287 99.7603 31.4701 95.7016 31.4701Z" fill="#E8368D"/>
<path d="M108.084 47.7162C107.132 47.3027 106.3 46.6518 105.67 45.8268C105.086 45.0643 104.744 44.1431 104.689 43.1845H108.694C108.753 43.8172 109.074 44.3989 109.577 44.7874C110.103 45.1854 110.746 45.3999 111.405 45.3999C111.445 45.3999 111.484 45.3989 111.524 45.3979C111.58 45.4008 111.639 45.4027 111.697 45.4027C112.266 45.4027 112.825 45.2383 113.303 44.9306C113.71 44.6527 113.953 44.1912 113.953 43.6979C113.953 43.6758 113.953 43.6537 113.952 43.6326C113.951 43.1239 113.643 42.6643 113.172 42.471C112.364 42.1124 111.519 41.8326 110.654 41.646C109.695 41.422 108.739 41.1297 107.816 40.7835C107.078 40.4874 106.42 40.0114 105.908 39.3999C105.394 38.746 105.113 37.9374 105.113 37.1047C105.113 37.0451 105.114 36.9855 105.117 36.9268C105.117 36.9143 105.117 36.8999 105.117 36.8874C105.117 36.0374 105.37 35.2066 105.844 34.4999C106.374 33.7316 107.113 33.1287 107.973 32.7662C108.97 32.3384 110.045 32.1162 111.131 32.1162C111.182 32.1162 111.234 32.1172 111.283 32.1172C111.4 32.1114 111.519 32.1086 111.636 32.1086C113.131 32.1086 114.586 32.6057 115.769 33.5201C116.89 34.4701 117.562 35.848 117.619 37.3172H113.808C113.775 36.7037 113.493 36.1297 113.029 35.7268C112.543 35.3374 111.938 35.1259 111.315 35.1259C111.266 35.1259 111.216 35.1278 111.167 35.1297C111.107 35.1258 111.048 35.1239 110.988 35.1239C110.461 35.1239 109.945 35.2797 109.505 35.571C109.138 35.8403 108.921 36.2682 108.921 36.7239C108.921 36.7422 108.921 36.7605 108.922 36.7787C108.921 36.7989 108.92 36.8201 108.92 36.8412C108.92 37.3576 109.227 37.8258 109.701 38.0316C110.491 38.3951 111.323 38.6778 112.174 38.8691C113.128 39.0951 114.072 39.3874 114.984 39.7441C115.72 40.0451 116.373 40.521 116.886 41.1268C117.405 41.7768 117.69 42.5854 117.69 43.4181C117.69 43.4835 117.688 43.5489 117.684 43.6133C117.685 43.6451 117.685 43.6787 117.685 43.7104C117.685 44.5566 117.434 45.3845 116.964 46.0864C116.433 46.8499 115.694 47.4479 114.835 47.8066C113.837 48.2354 112.759 48.4566 111.672 48.4566C111.628 48.4566 111.579 48.4556 111.537 48.4556C111.52 48.4556 111.5 48.4556 111.481 48.4556C110.31 48.4556 109.149 48.2027 108.084 47.7162Z" fill="#E8368D"/>
<path d="M49.4364 8.67209L49.2806 14.1894V35.4153C49.2806 42.322 43.5037 47.9499 36.4018 47.9499H14.0009C6.89998 47.9499 1.12211 42.322 1.12211 35.4153V13.6307C1.12211 6.72402 6.89902 1.10288 14.0009 1.10288H36.4018C36.4143 1.10288 36.4297 1.10288 36.4422 1.10288C37.9181 1.10288 39.3883 1.35865 40.7778 1.85576C41.6278 1.85576 42.5499 1.85577 43.5239 1.92115C41.3662 0.664425 38.9095 0 36.4124 0H36.4018H14.0009C6.28267 0 0 6.11441 0 13.6317V35.4162C0 42.9268 6.28363 49.0479 14.0009 49.0479H36.4018C44.1133 49.0479 50.397 42.9335 50.397 35.4162V13.6317C50.3979 13.6125 50.3979 13.5932 50.3979 13.574C50.3979 11.8942 50.071 10.2288 49.4373 8.67305L49.4364 8.67209Z" fill="url(#paint0_linear_2_410)"/>
<path d="M28.2104 6.60768C27.3729 7.36825 26.6835 8.28748 26.1912 9.30863L26.1325 9.4519C25.8335 10.1932 25.6786 10.9875 25.6786 11.7884C25.6786 11.7942 25.6786 11.8009 25.6786 11.8077V31.0086C24.9238 30.397 24.1979 29.7268 23.5248 29.0278C22.521 27.9961 21.6162 26.8557 20.8364 25.6461C19.1546 23.0615 18.0219 20.1519 17.5258 17.1057C17.3777 16.2105 17.2767 15.3009 17.2392 14.3971C17.2392 14.2346 17.2392 14.0596 17.2392 13.8903L17.2402 13.8913C17.2402 13.8913 17.2402 13.6384 17.2402 13.4173C17.2412 13.3913 17.2412 13.3634 17.2412 13.3375C17.2412 12.699 17.0652 12.073 16.7335 11.5279C16.4171 11.0932 15.9364 10.8038 15.4027 10.7298C15.371 10.7279 15.3383 10.7279 15.3056 10.7279C14.9248 10.7279 14.5508 10.8346 14.2277 11.0355C13.7518 11.5038 13.3306 12.0307 12.9816 12.6009C10.6008 16.7365 7.00083 20.0432 2.67969 22.0711V22.1096C3.46815 23.2999 4.80179 24.0153 6.22967 24.0153C7.1412 24.0153 8.02967 23.722 8.76236 23.1807C10.2931 22.0634 11.7172 20.7807 12.9825 19.3701L12.9806 38.6874C12.9806 38.6903 12.9806 38.6951 12.9806 38.6989C12.9806 41.1066 14.2037 43.3528 16.2258 44.6585C16.42 44.7883 16.6219 44.9114 16.8229 45.0345C17.0239 45.1576 17.245 45.3008 17.4719 45.4239V27.7942C19.3316 30.7143 21.7392 33.2547 24.5594 35.2643C24.9229 35.5307 25.2931 35.7835 25.6758 36.0307C27.0969 36.9528 28.6084 37.7499 30.1738 38.3941L30.1748 12.8317C30.1748 12.8211 30.1748 12.8096 30.1748 12.799C30.1748 11.8769 30.4344 10.9711 30.9219 10.1894C31.1267 9.85671 31.3709 9.54805 31.6488 9.27401C32.9286 8.08556 34.6132 7.42402 36.3613 7.42402C36.3767 7.42402 36.3921 7.42402 36.4075 7.42402H44.2421C44.2421 7.42402 45.0142 22.5028 35.7382 21.7047C35.7382 17.8625 35.7382 12.6173 40.7623 10.8057C33.8104 10.7211 32.6488 16.875 33.4209 24.6644H37.8094C37.844 24.6644 37.8805 24.6644 37.9151 24.6644C40.1026 24.6644 42.2267 23.9278 43.943 22.574C46.0603 20.8769 47.3218 18.3288 47.3843 15.6163L47.7218 3.99711C31.6036 2.64038 29.7796 5.19133 28.2094 6.60575L28.2104 6.60768Z" fill="url(#paint1_linear_2_410)"/>
</g>
<defs>
<linearGradient id="paint0_linear_2_410" x1="50" y1="-2.21845e-06" x2="25.199" y2="49.0479" gradientUnits="userSpaceOnUse">
<stop stop-color="#CCBCFF"/>
<stop offset="1" stop-color="#E8368D"/>
</linearGradient>
<linearGradient id="paint1_linear_2_410" x1="47.3662" y1="3.61163" x2="33.3347" y2="25.5342" gradientUnits="userSpaceOnUse">
<stop stop-color="#B199FF"/>
<stop offset="1" stop-color="#E8368D"/>
</linearGradient>
<clipPath id="clip0_2_410">
<rect width="150" height="50" fill="white"/>
</clipPath>
</defs>
</svg>
