<svg width="512" height="499" viewBox="0 0 512 499" fill="none" xmlns="http://www.w3.org/2000/svg">
<path d="M502.232 88.101L500.649 144.152V359.789C500.649 429.955 441.961 487.13 369.811 487.13H142.237C70.0979 487.13 11.3997 429.955 11.3997 359.789V138.477C11.3997 68.3103 70.0881 11.2044 142.237 11.2044H369.811C369.938 11.2044 370.095 11.2044 370.222 11.2044C385.216 11.2044 400.152 13.8027 414.267 18.853C422.903 18.853 432.27 18.853 442.166 19.5173C420.246 6.74999 395.287 0 369.919 0C369.899 0 369.831 0 369.811 0H142.237C63.8266 0 0 62.1172 0 138.486V359.799C0 436.1 63.8364 498.285 142.237 498.285H369.811C448.154 498.285 511.99 436.168 511.99 359.799V138.486C512 138.291 512 138.096 512 137.9C512 120.835 508.679 103.916 502.241 88.1108L502.232 88.101Z" fill="url(#paint0_linear_2399_3)"/>
<path d="M286.593 67.1279C278.085 74.8547 271.081 84.1933 266.08 94.5673L265.484 96.0228C262.446 103.554 260.873 111.623 260.873 119.76C260.873 119.819 260.873 119.887 260.873 119.955V315.02C253.205 308.807 245.83 301.999 238.992 294.897C228.794 284.416 219.602 272.831 211.68 260.542C194.595 234.285 183.088 204.725 178.047 173.779C176.543 164.685 175.517 155.444 175.136 146.262C175.136 144.611 175.136 142.833 175.136 141.114L175.146 141.123C175.146 141.123 175.146 138.554 175.146 136.308C175.156 136.044 175.156 135.761 175.156 135.497C175.156 129.011 173.368 122.651 169.998 117.113C166.784 112.697 161.9 109.757 156.479 109.005C156.156 108.985 155.824 108.985 155.492 108.985C151.624 108.985 147.824 110.07 144.542 112.111C139.706 116.869 135.428 122.222 131.882 128.014C107.695 170.028 71.1224 203.622 27.2233 224.223V224.614C35.2334 236.707 48.7821 243.975 63.2881 243.975C72.5485 243.975 81.5746 240.995 89.0181 235.496C104.569 224.145 119.036 211.114 131.892 196.784L131.872 393.03C131.872 393.06 131.872 393.109 131.872 393.148C131.872 417.608 144.297 440.427 164.84 453.692C166.814 455.011 168.865 456.261 170.906 457.512C172.948 458.762 175.195 460.217 177.5 461.468V282.365C196.392 312.031 220.852 337.839 249.503 358.255C253.195 360.961 256.956 363.53 260.844 366.04C275.282 375.408 290.637 383.506 306.54 390.051L306.55 130.359C306.55 130.251 306.55 130.134 306.55 130.027C306.55 120.659 309.188 111.457 314.14 103.515C316.221 100.135 318.702 96.9996 321.525 94.2156C334.527 82.1419 351.641 75.4213 369.4 75.4213C369.556 75.4213 369.713 75.4213 369.869 75.4213H449.462C449.462 75.4213 457.306 228.609 363.07 220.501C363.07 181.467 363.07 128.18 414.11 109.777C343.484 108.917 331.684 171.435 339.528 250.568H384.111C384.463 250.568 384.834 250.568 385.186 250.568C407.409 250.568 428.987 243.086 446.424 229.332C467.934 212.091 480.75 186.205 481.385 158.648L484.813 40.6068C321.066 26.8236 302.535 52.7391 286.584 67.1084L286.593 67.1279Z" fill="url(#paint1_linear_2399_3)"/>
<defs>
<linearGradient id="paint0_linear_2399_3" x1="507.957" y1="-4.41931e-06" x2="256" y2="498.285" gradientUnits="userSpaceOnUse">
<stop stop-color="#CCBCFF"/>
<stop offset="1" stop-color="#E8368D"/>
</linearGradient>
<linearGradient id="paint1_linear_2399_3" x1="481.2" y1="36.6907" x2="338.652" y2="259.405" gradientUnits="userSpaceOnUse">
<stop stop-color="#B199FF"/>
<stop offset="1" stop-color="#E8368D"/>
</linearGradient>
</defs>
</svg>
